<svg xmlns="http://www.w3.org/2000/svg" viewBox="0 0 654.6 755.87"><defs><style>.cls-1{fill:#262626;stroke:#140202;stroke-miterlimit:10;stroke-width:10px;}.cls-2{fill:#7f0d0d;}.cls-3{fill:#bf1616;}.cls-4{fill:#fff;}</style></defs><title>MD_Logo</title><g id="Layer_2" data-name="Layer 2"><g id="Layer_8" data-name="Layer 8"><polygon class="cls-1" points="5 191.85 5 564.01 327.3 750.09 649.6 564.01 649.6 191.85 327.3 5.77 5 191.85"/></g><g id="Layer_5" data-name="Layer 5"><polyline class="cls-2" points="40.35 216.11 327.35 383.11 614.35 216.11 614.35 538.11 450.35 637.11 450.35 538.11 327.35 609.11 203.35 538.11 203.35 637.11 40.35 538.11"/><polygon class="cls-2" points="327.35 143.11 449.35 216.11 327.35 288.11 327.35 143.11"/></g><g id="Layer_6" data-name="Layer 6"><polygon class="cls-3" points="327.35 383.11 327.35 609.11 450.35 538.11 450.35 637.11 614.35 538.11 614.35 216.11 327.35 383.11"/><polygon class="cls-3" points="327.35 143.11 327.35 290.11 204.35 215.11 327.35 143.11"/></g><g id="Layer_9" data-name="Layer 9"><polygon class="cls-4" points="40.35 216.11 250.35 95.11 327.35 143.11 404.35 96.11 614.35 216.11 327.35 383.11 326.35 290.11 449.35 218.11 327.35 143.11 204.35 218.11 326.35 290.11 327.35 383.11 40.35 216.11"/><polygon class="cls-4" points="203.35 637.11 204.35 538.11 284.35 586.11 203.35 637.11"/><polygon class="cls-4" points="370.35 584.11 450.35 538.11 450.35 637.11 370.35 584.11"/></g></g></svg>